<?xml version="1.0" encoding="UTF-8" standalone="no"?>
<!DOCTYPE svg PUBLIC "-//W3C//DTD SVG 1.1//EN" "http://www.w3.org/Graphics/SVG/1.1/DTD/svg11.dtd">
<svg version="1.1" xmlns="http://www.w3.org/2000/svg" xmlns:xlink="http://www.w3.org/1999/xlink" preserveAspectRatio="xMidYMid meet" viewBox="0 0 1032 1032" width="1032" height="1032"><defs><path d="M37.12 324.2C-68.82 588.71 59.75 889.01 324.23 994.89C588.71 1100.8 888.97 972.26 994.88 707.78C1100.83 443.27 972.22 143.04 707.74 37.09C443.3 -68.79 143.03 59.73 37.12 324.2ZM96.96 348.22C189.49 117.18 452.74 4.43 683.82 97C914.86 189.5 1027.58 452.75 935.08 683.79C842.51 914.87 579.29 1027.55 348.22 935.05C117.18 842.52 4.46 579.3 96.96 348.22Z" id="c4WT63AnnI"></path><path d="M456.16 492.02C442.91 525.07 459 562.6 492.01 575.85C525.06 589.1 562.66 573.01 575.87 540C589.09 506.95 573.04 469.42 540.02 456.14C506.97 442.89 469.41 458.97 456.16 492.02ZM486.05 504.02C492.69 487.51 511.49 479.48 528 486.06C544.47 492.67 552.5 511.46 545.92 528C539.31 544.51 520.52 552.54 504.01 545.96C487.5 539.32 479.47 520.55 486.05 504.02Z" id="h55lXZoudV"></path><path d="M336.42 444.11C296.7 543.29 344.93 655.87 444.07 695.59C543.25 735.32 655.83 687.11 695.55 587.94C735.28 488.76 687.11 376.15 587.9 336.46C488.73 296.73 376.14 344.97 336.42 444.11ZM396.29 468.07C422.73 402.07 497.91 369.86 563.91 396.26C629.98 422.7 662.15 497.95 635.78 563.95C609.31 629.95 534.09 662.19 468.09 635.72C402.06 609.32 369.88 534.06 396.29 468.07Z" id="bzq46eukf"></path><path d="M746.5 590.97C738.24 587.62 728.86 591.65 725.54 599.93C725.54 599.93 725.54 599.9 725.54 599.9C702.36 657.81 657.9 700.78 604.83 723.51C596.7 727 592.87 736.48 596.38 744.63C599.89 752.85 609.34 756.63 617.53 753.14C617.85 753.02 617.98 752.76 618.21 752.66C678.6 726.55 729.09 677.64 755.43 611.9C755.43 611.9 755.45 611.9 755.49 611.9C755 600.14 752 593.16 746.5 590.97Z" id="c3VKWNFrQ"></path><path d="M845.22 647.81C808.82 738.73 738.98 806.28 655.54 842C647.42 845.48 643.58 854.96 647.1 863.15C650.61 871.37 660.06 875.11 668.25 871.63C668.63 871.44 668.92 871.08 669.31 870.92C759.88 831.81 835.68 758.4 875.17 659.81C878.46 651.55 874.43 642.17 866.18 638.85C857.92 635.53 848.54 639.56 845.22 647.81Z" id="ileEVQCww"></path><path d="M785.35 623.86C755.62 698.27 698.52 753.5 630.2 782.74C630.21 782.74 630.26 782.74 630.27 782.74C622.08 786.26 618.24 795.74 621.75 803.93C625.27 812.11 634.71 815.89 642.9 812.4C643.23 812.24 643.42 811.95 643.77 811.76C719.22 779.16 782.38 718.03 815.3 635.85C818.59 627.6 814.56 618.21 806.3 614.89C798.05 611.57 788.67 615.57 785.35 623.86Z" id="m3eoPLHg"></path><path d="M414.51 278.91C414.22 279 414.05 279.26 413.83 279.36C353.44 305.47 302.92 354.41 276.61 420.12C276.61 420.12 276.58 420.12 276.58 420.12C273.26 428.41 277.29 437.76 285.54 441.08C293.83 444.4 303.21 440.37 306.5 432.12C306.5 432.12 306.53 432.12 306.53 432.12C329.68 374.28 374.14 331.27 427.21 308.57C435.4 305.02 439.2 295.57 435.69 287.35C432.17 279.13 422.7 275.39 414.51 278.91Z" id="a49wo8NLln"></path><path d="M363.73 160.32C363.34 160.48 363.05 160.84 362.73 161C272.13 200.14 196.36 273.52 156.87 372.12C153.51 380.43 157.54 389.82 165.83 393.1C174.08 396.43 183.46 392.43 186.79 384.14C223.22 293.25 293.02 225.71 376.46 189.98C384.62 186.44 388.42 176.99 384.91 168.8C381.39 160.61 371.92 156.84 363.73 160.32Z" id="b1b8gLpWzY"></path><path d="M410.31 228.06C406.8 219.9 397.32 216.1 389.13 219.61C388.81 219.74 388.62 220.06 388.29 220.19C312.82 252.82 249.66 314.02 216.77 396.17C213.42 404.45 217.48 413.8 225.7 417.16C233.95 420.45 243.34 416.48 246.66 408.19C276.42 333.78 333.55 278.52 401.8 249.31C401.8 249.3 401.8 249.27 401.8 249.21C409.82 240.59 412.66 233.54 410.31 228.06Z" id="e1oH0nTRoU"></path></defs><g><g><g><use xlink:href="#c4WT63AnnI" opacity="1" fill="#bf616a" fill-opacity="1"></use><g><use xlink:href="#c4WT63AnnI" opacity="1" fill-opacity="0" stroke="#000000" stroke-width="1" stroke-opacity="0"></use></g></g><g><use xlink:href="#h55lXZoudV" opacity="1" fill="#bf616a" fill-opacity="1"></use><g><use xlink:href="#h55lXZoudV" opacity="1" fill-opacity="0" stroke="#000000" stroke-width="1" stroke-opacity="0"></use></g></g><g><use xlink:href="#bzq46eukf" opacity="1" fill="#bf616a" fill-opacity="1"></use><g><use xlink:href="#bzq46eukf" opacity="1" fill-opacity="0" stroke="#000000" stroke-width="1" stroke-opacity="0"></use></g></g><g><use xlink:href="#c3VKWNFrQ" opacity="1" fill="#bf616a" fill-opacity="1"></use><g><use xlink:href="#c3VKWNFrQ" opacity="1" fill-opacity="0" stroke="#000000" stroke-width="1" stroke-opacity="0"></use></g></g><g><use xlink:href="#ileEVQCww" opacity="1" fill="#bf616a" fill-opacity="1"></use><g><use xlink:href="#ileEVQCww" opacity="1" fill-opacity="0" stroke="#000000" stroke-width="1" stroke-opacity="0"></use></g></g><g><use xlink:href="#m3eoPLHg" opacity="1" fill="#bf616a" fill-opacity="1"></use><g><use xlink:href="#m3eoPLHg" opacity="1" fill-opacity="0" stroke="#000000" stroke-width="1" stroke-opacity="0"></use></g></g><g><use xlink:href="#a49wo8NLln" opacity="1" fill="#bf616a" fill-opacity="1"></use><g><use xlink:href="#a49wo8NLln" opacity="1" fill-opacity="0" stroke="#000000" stroke-width="1" stroke-opacity="0"></use></g></g><g><use xlink:href="#b1b8gLpWzY" opacity="1" fill="#bf616a" fill-opacity="1"></use><g><use xlink:href="#b1b8gLpWzY" opacity="1" fill-opacity="0" stroke="#000000" stroke-width="1" stroke-opacity="0"></use></g></g><g><use xlink:href="#e1oH0nTRoU" opacity="1" fill="#bf616a" fill-opacity="1"></use><g><use xlink:href="#e1oH0nTRoU" opacity="1" fill-opacity="0" stroke="#000000" stroke-width="1" stroke-opacity="0"></use></g></g></g></g></svg>